{"title":"18+ Baked In Brooklyn 2016 Movies HDRip XviD AAC New +Sample ☻rD","uid":16014758,"size":739343930,"categoryP":"video","categoryS":"movies","magnet":"?xt=urn:btih:df4c60c3227a6c6463b2880be638ba92025158ea&amp;dn=18%2B+Baked+In+Brooklyn+2016+Movies+HDRip+XviD+AAC+New+%2BSample+%E2%98%BBrD&amp;tr=udp%3A%2F%2Ftracker.leechers-paradise.org%3A6969&amp;tr=udp%3A%2F%2Fzer0day.ch%3A1337&amp;tr=udp%3A%2F%2Fopen.demonii.com%3A1337&amp;tr=udp%3A%2F%2Ftracker.coppersurfer.tk%3A6969&amp;tr=udp%3A%2F%2Fexodus.desync.com%3A6969","seeders":2,"leechers":39,"uploader":"basicssom","files":2,"time":1476278996,"description":"----------------------------------------------------------------\r\n18+ Baked In Brooklyn 2016 English Movies HDRip XviD AAC New Source with Sample ☻rDX☻\r\n\r\nSCREEN SHOTS &amp; POSTER:\r\n  \nhttp://postimage.co.nr/2016/10/server/index.htm  \nhttp://postimage.co.nr/2016/10/server/1.html  \nhttp://postimage.co.nr/2016/10/server/2.html  \nhttp://postimage.co.nr/2016/10/server/3.html  \nhttp://postimage.co.nr/2016/10/server/4.html  \nhttp://postimage.co.nr/2016/10/server/5.html  \nhttp://postimage.co.nr/2016/10/server/6.html  \nhttp://postimage.co.nr/2016/10/server/7.html  \nhttp://postimage.co.nr/2016/10/server/8.html  \nhttp://postimage.co.nr/2016/10/server/9.html  \nhttp://postimage.co.nr/2016/10/server/10.html\r\n\r\nFormat                                   : Matroska\r\nFormat version                           : Version 4 / Version 2\r\nFile size                                : 698 MiB\r\nDuration                                 : 1 h 26 min\r\nOverall bit rate mode                    : Constant\r\nOverall bit rate                         : 1 130 kb/s\r\nMovie name                               : 18+ Baked In Brooklyn 2016 English Movies HDRip XviD AAC New Source ☻rDX☻\r\n\r\nVideo\r\nID                                       : 2\r\nFormat                                   : AVC\r\nFormat/Info                              : Advanced Video Codec\r\nFormat profile                           :   \r\nFormat settings, CABAC                   : Yes\r\nFormat settings, ReFrames                : 2 frames\r\nFormat settings, GOP                     : M=1, N=12\r\nCodec ID                                 : V_MPEG4/ISO/AVC\r\nDuration                                 : 1 h 26 min\r\nBit rate mode                            : Constant\r\nBit rate                                 : 683 kb/s\r\nWidth                                    : 720 pixels\r\nHeight                                   : 384 pixels\r\nDisplay aspect ratio                     : 1.85:1\r\nFrame rate mode                          : Constant\r\nFrame rate                               : 23.976 FPS\r\nColor space                              : YUV\r\nChroma subsampling                       : 4:2:0\r\nBit depth                                : 8 bits\r\nScan type                                : Progressive\r\nBits/(Pixel*Frame)                       : 0.103\r\nStream size                              : 407 MiB (58%)\r\nTitle                                    : ☻rDX☻\r\nDefault                                  : Yes\r\nForced                                   : No\r\n\r\nAudio\r\nID                                       : 1\r\nFormat                                   : AC-3\r\nFormat/Info                              : Audio Coding 3\r\nMode extension                           : CM (complete main)\r\nFormat settings, Endianness              : Big\r\nCodec ID                                 : A_AC3\r\nDuration                                 : 1 h 26 min\r\nBit rate mode                            : Constant\r\nBit rate                                 : 448 kb/s\r\nChannel(s)                               : 6 channels\r\nChannel positions                        : Front: L C R, Side: L R, LFE\r\nSampling rate                            : 48.0 kHz\r\nFrame rate                               : 31.250 FPS (1536 spf)\r\nCompression mode                         : Lossy\r\nStream size                              : 277 MiB (40%)\r\nTitle                                    : ☻rDX☻\r\nDefault                                  : Yes\r\nForced                                   : No\r\n\r\nIMDB \nhttp://www.imdb.com/title/tt3138344/","torrent":{"xt":"urn:btih:df4c60c3227a6c6463b2880be638ba92025158ea","amp;dn":"18%2B+Baked+In+Brooklyn+2016+Movies+HDRip+XviD+AAC+New+%2BSample+%E2%98%BBrD","amp;tr":["udp%3A%2F%2Ftracker.leechers-paradise.org%3A6969","udp%3A%2F%2Fzer0day.ch%3A1337","udp%3A%2F%2Fopen.demonii.com%3A1337","udp%3A%2F%2Ftracker.coppersurfer.tk%3A6969","udp%3A%2F%2Fexodus.desync.com%3A6969"],"infoHash":"df4c60c3227a6c6463b2880be638ba92025158ea","infoHashBuffer":{"type":"Buffer","data":[223,76,96,195,34,122,108,100,99,178,136,11,230,56,186,146,2,81,88,234]},"announce":[],"urlList":[]}}